name pl06_filtered_grf.mot
datacolumns 37
datarows 12
range 1.084000 1.089500
endheader
time	1_ground_force_vx	1_ground_force_vy	1_ground_force_vz	1_ground_force_px	1_ground_force_py	1_ground_force_pz	1_ground_torque_x	1_ground_torque_y	1_ground_torque_z	2_ground_force_vx	2_ground_force_vy	2_ground_force_vz	2_ground_force_px	2_ground_force_py	2_ground_force_pz	2_ground_torque_x	2_ground_torque_y	2_ground_torque_z	3_ground_force_vx	3_ground_force_vy	3_ground_force_vz	3_ground_force_px	3_ground_force_py	3_ground_force_pz	3_ground_torque_x	3_ground_torque_y	3_ground_torque_z	4_ground_force_vx	4_ground_force_vy	4_ground_force_vz	4_ground_force_px	4_ground_force_py	4_ground_force_pz	4_ground_torque_x	4_ground_torque_y	4_ground_torque_z
            1.084000	          -23.083016	          552.468928	           81.122846	            0.122596	            0.000000	            0.215630	           -0.505630	           12.101752	            1.776984	           23.940052	          631.617415	           91.361301	           -0.124513	            0.000000	            0.224032	           -0.063038	           -1.663149	           -0.240569	           22.311917	            1.091853	            0.405182	            0.375489	            1.311042	            1.913138	           -0.102515	           -0.005017	           -0.001862	          -18.903191	           -0.441544	            1.445864	           -0.265124	            1.309988	            1.923986	            0.008279	            0.000193	           -0.000633
            1.084500	          -23.019353	          552.353098	           80.147442	            0.122639	            0.000000	            0.215766	           -0.504618	           12.108381	            1.756948	           24.148705	          631.518893	           90.532350	           -0.124577	            0.000000	            0.224142	           -0.061828	           -1.616883	           -0.231791	           22.315495	            1.079062	            0.402548	            0.375492	            1.311046	            1.913131	           -0.102697	           -0.004966	           -0.001853	          -18.913712	           -0.439194	            1.448965	           -0.265124	            1.309987	            1.923983	            0.007947	            0.000185	           -0.000609
            1.085000	          -22.956676	          552.221870	           79.177692	            0.122680	            0.000000	            0.215901	           -0.503607	           12.114249	            1.736944	           24.369942	          631.412427	           89.694500	           -0.124644	            0.000000	            0.224257	           -0.060587	           -1.569782	           -0.222993	           22.319183	            1.065370	            0.398136	            0.375495	            1.311049	            1.913124	           -0.102893	           -0.004911	           -0.001835	          -18.923417	           -0.437568	            1.453434	           -0.265125	            1.309987	            1.923979	            0.007602	            0.000176	           -0.000584
            1.085500	          -22.894763	          552.073605	           78.214129	            0.122719	            0.000000	            0.216034	           -0.502596	           12.119353	            1.716990	           24.602913	          631.297771	           88.846723	           -0.124715	            0.000000	            0.224375	           -0.059319	           -1.522089	           -0.214214	           22.322978	            1.050853	            0.392004	            0.375499	            1.311053	            1.913119	           -0.103104	           -0.004854	           -0.001811	          -18.932259	           -0.436631	            1.459227	           -0.265126	            1.309987	            1.923977	            0.007248	            0.000167	           -0.000559
            1.086000	          -22.833376	          551.906729	           77.257246	            0.122757	            0.000000	            0.216165	           -0.501579	           12.123693	            1.697104	           24.846713	          631.174646	           87.988034	           -0.124789	            0.000000	            0.224498	           -0.058027	           -1.474050	           -0.205488	           22.326883	            1.035604	            0.384160	            0.375502	            1.311056	            1.913113	           -0.103330	           -0.004793	           -0.001778	          -18.940193	           -0.436343	            1.466309	           -0.265127	            1.309987	            1.923974	            0.006887	            0.000159	           -0.000533
            1.086500	          -22.772263	          551.719734	           76.307499	            0.122793	            0.000000	            0.216295	           -0.500554	           12.127276	            1.677305	           25.100391	          631.042736	           87.117505	           -0.124865	            0.000000	            0.224626	           -0.056717	           -1.425916	           -0.196852	           22.330905	            1.019728	            0.374657	            0.375505	            1.311060	            1.913108	           -0.103568	           -0.004729	           -0.001738	          -18.947177	           -0.436661	            1.474621	           -0.265128	            1.309987	            1.923972	            0.006524	            0.000150	           -0.000508
            1.087000	          -22.711161	          551.511188	           75.365301	            0.122828	            0.000000	            0.216422	           -0.499516	           12.130109	            1.657608	           25.362952	          630.901685	           86.234276	           -0.124945	            0.000000	            0.224759	           -0.055394	           -1.377933	           -0.188342	           22.335052	            1.003346	            0.363566	            0.375509	            1.311064	            1.913102	           -0.103818	           -0.004664	           -0.001690	          -18.953177	           -0.437535	            1.484094	           -0.265129	            1.309987	            1.923969	            0.006161	            0.000142	           -0.000482
            1.087500	          -22.649797	          551.279735	           74.431021	            0.122860	            0.000000	            0.216547	           -0.498462	           12.132210	            1.638030	           25.633370	          630.751093	           85.337574	           -0.125028	            0.000000	            0.224897	           -0.054065	           -1.330348	           -0.179990	           22.339335	            0.986589	            0.350973	            0.375512	            1.311067	            1.913097	           -0.104079	           -0.004597	           -0.001635	          -18.958160	           -0.438913	            1.494643	           -0.265130	            1.309987	            1.923967	            0.005801	            0.000134	           -0.000457
            1.088000	          -22.587895	          551.024101	           73.504980	            0.122891	            0.000000	            0.216670	           -0.497387	           12.133599	            1.618586	           25.910592	          630.590514	           84.426720	           -0.125115	            0.000000	            0.225040	           -0.052734	           -1.283399	           -0.171828	           22.343768	            0.969601	            0.336901	            0.375516	            1.311072	            1.913093	           -0.104349	           -0.004528	           -0.001573	          -18.962094	           -0.440737	            1.506233	           -0.265132	            1.309988	            1.923966	            0.005448	            0.000127	           -0.000433
            1.088500	          -22.525173	          550.743092	           72.587456	            0.122920	            0.000000	            0.216790	           -0.496288	           12.134303	            1.599290	           26.193550	          630.419454	           83.501142	           -0.125204	            0.000000	            0.225189	           -0.051410	           -1.237317	           -0.163887	           22.348362	            0.952531	            0.321533	            0.375520	            1.311076	            1.913089	           -0.104627	           -0.004459	           -0.001505	          -18.964960	           -0.442953	            1.518703	           -0.265134	            1.309989	            1.923964	            0.005106	            0.000119	           -0.000409
            1.089000	          -22.461348	          550.435602	           71.678678	            0.122947	            0.000000	            0.216908	           -0.495160	           12.134354	            1.580157	           26.481167	          630.237367	           82.560384	           -0.125296	            0.000000	            0.225343	           -0.050099	           -1.192323	           -0.156193	           22.353130	            0.935536	            0.304988	            0.375524	            1.311081	            1.913085	           -0.104910	           -0.004391	           -0.001431	          -18.966736	           -0.445501	            1.531939	           -0.265136	            1.309990	            1.923963	            0.004777	            0.000112	           -0.000386
            1.089500	          -22.396141	          550.100610	           70.778831	            0.122972	            0.000000	            0.217024	           -0.494001	           12.133793	            1.561197	           26.772365	          630.043659	           81.604113	           -0.125391	            0.000000	            0.225503	           -0.048808	           -1.148623	           -0.148771	           22.358085	            0.918777	            0.287397	            0.375527	            1.311085	            1.913081	           -0.105197	           -0.004323	           -0.001352	          -18.967404	           -0.448323	            1.545820	           -0.265138	            1.309990	            1.923961	            0.004464	            0.000106	           -0.000364
